<?xml version="1.0" encoding="UTF-8"?>
<svg width="300px" height="80px" viewBox="0 0 300 80" version="1.1" xmlns="http://www.w3.org/2000/svg" xmlns:xlink="http://www.w3.org/1999/xlink">
    <!-- Generator: Sketch 58 (84663) - https://sketch.com -->
    <title>Group</title>
    <desc>Created with Sketch.</desc>
    <g id="마음의담" stroke="none" stroke-width="1" fill="none" fill-rule="evenodd">
        <g id="cover-copy" transform="translate(-42.000000, -68.000000)">
            <g id="Group" transform="translate(42.000000, 68.000000)">
                <g id="Wall">
                    <rect id="Front" fill="#FF4050" x="0" y="8" width="96" height="72"></rect>
                    <polygon id="Top" fill="#CC3340" points="8 0 88 0 96 8 0 8"></polygon>
                    <path d="M48,32 C46,30 41,24 34,24 C28,24 24,29 24,36 C24,50 48,64 48,64 C48,64 72,50 72,36 C72,29 68,24 62,24 C55,24 50,30 48,32 Z" id="Heart" fill="#FFFFFF"></path>
                </g>
                <g id="마음의담" transform="translate(126.000000, 12.000000)">
                    <g transform="translate(2.000000, 2.000000)">
                        <g id="담" transform="translate(126.000000, 4.000000)" stroke="#36414D" stroke-linecap="square" stroke-width="4">
                            <polygon id="ㅁ" points="24 34 24 50 44 50 44 34"></polygon>
                            <path d="M24,0 L24,24 M32,12 L24,12" id="ㅏ"></path>
                            <polyline id="ㄷ" points="14 0 0 0 0 44 14 44"></polyline>
                        </g>
                        <g id="의" transform="translate(86.000000, 12.000000)" stroke="#36414D" stroke-linecap="square" stroke-width="4">
                            <polyline id="ㅢ" points="0 30 28 30 28 0"></polyline>
                            <circle id="ㅇ" cx="10" cy="10" r="10"></circle>
                        </g>
                        <g id="음" transform="translate(44.000000, 0.000000)" stroke-width="4">
                            <polygon id="ㅁ" stroke="#36414D" stroke-linecap="square" points="4 38 4 54 28 54 28 38"></polygon>
                            <path d="M0,30 L32,30" id="ㅡ" stroke="#36414D" stroke-linecap="square"></path>
                            <path d="M16,5 C15,4 12,0 8,0 C4,0 2,3 2,7.01728395 C2,15 16,23 16,23 C16,23 30,15 30,7.01728395 C30,3 28,0 24,0 C20,0 17,4 16,5 Z" id="ㅇ" stroke="#FF4C5B"></path>
                        </g>
                        <g id="마" transform="translate(0.000000, 12.000000)" stroke="#36414D" stroke-linecap="square" stroke-width="4">
                            <path d="M30,0 L30,24 M36,12 L30,12" id="ㅏ"></path>
                            <polygon id="ㅁ" points="0 0 0 24 20 24 20 0"></polygon>
                        </g>
                    </g>
                </g>
            </g>
        </g>
    </g>
</svg>